<?xml version="1.0" standalone="no"?>
<!DOCTYPE svg PUBLIC "-//W3C//DTD SVG 1.1//EN" "http://www.w3.org/Graphics/SVG/1.1/DTD/svg11.dtd">
<svg xmlns="http://www.w3.org/2000/svg">
<defs >
<font id="BigShouldersDisplay" horiz-adv-x="549" ><font-face
    font-family="Big Shoulders Display Thin"
    units-per-em="2000"
    panose-1="0 0 0 0 0 0 0 0 0 0"
    ascent="1968"
    descent="-426"
    alphabetic="0" />
<glyph unicode=" " horiz-adv-x="427" />
<glyph unicode="!" horiz-adv-x="455" d="M149 378L118 1209V1600H337V1209L307 378H149ZM86 0V229H368V0H86Z" />
<glyph unicode="&quot;" horiz-adv-x="672" d="M126 1111L86 1361V1600H269V1361L230 1111H126ZM442 1111L403 1361V1600H585V1361L546 1111H442Z" />
<glyph unicode="#" horiz-adv-x="1297" d="M144 0L248 432H60L104 610H284L379 975H191L234 1154H416L526 1600H741L631 1154H831L942 1600H1157L1046 1154H1235L1194 975H1010L915 610H1101L1057 432H878L775 0H560L663 432H462L359 0H144ZM499 610H700L795 975H594L499
610Z" />
<glyph unicode="$" horiz-adv-x="815" d="M312 -202V-10Q187 8 132 86T70 316Q69 363 69 407T69 497T75 589H279Q275 509 275 429T279 278Q283 219 314 191T409 162Q472 162 500 190T534 278Q537 323 538 362T538 441T534 529Q530 588 510 630T437 686L303 720Q213
743 162 787T89 901T64 1066Q63 1120 63 1176T65 1287Q71 1439 126 1515T312 1610V1819H502V1610Q624 1592 681 1515T744 1286Q746 1237 745 1166T741 1023H533Q536 1098 536 1173T534 1324Q533 1382 501 1410T408 1439Q344 1439 315 1411T281 1324Q276 1260 276
1195T281 1066Q285 1002 306 963T382 910L503 881Q598 859 651 813T726 696T751 529Q753 487 753 453T752 387T750 316Q744 163 687 85T502 -12V-202H312Z" />
<glyph unicode="%" horiz-adv-x="1178" d="M103 0L933 1600H1085L254 0H103ZM853 -10Q756 -10 702 42T644 192Q642 246 642 302T641 417T644 531Q648 626 701 678T853 730Q951 730 1005 678T1064 531Q1066 489 1066 446T1067 359T1067 274T1064 192Q1059 96 1005
43T853 -10ZM853 117Q879 117 892 131T907 166Q910 202 911 252T912 357T911 465T907 556Q906 576 893 589T853 603Q829 603 815 590T800 556Q797 503 796 430T795 286T800 166Q802 148 815 133T853 117ZM293 868Q196 868 142 920T84 1070Q83 1124 83 1180T82 1295T84
1409Q88 1504 141 1556T293 1608Q392 1608 445 1556T504 1409Q506 1367 506 1324T507 1237T507 1152T504 1070Q499 974 446 921T293 868ZM293 995Q319 995 332 1009T347 1044Q350 1080 351 1130T352 1235T351 1343T347 1434Q346 1454 333 1467T293 1481Q269 1481
256 1468T240 1434Q237 1381 236 1308T235 1164T240 1044Q242 1026 255 1011T293 995Z" />
<glyph unicode="&amp;" horiz-adv-x="1087" d="M453 -17Q270 -17 188 60T99 315Q98 377 98 421T100 502T106 582Q112 688 156 755T258 874Q213 979 185 1080T150 1271Q133 1430 207 1523T451 1617Q617 1617 690 1532T749 1283Q742 1169 692 1066T552 872Q542 861
531 850T508 825Q540 762 576 700T649 576Q648 629 643 688T631 809L806 810Q814 744 819 663T825 500T821 347Q872 280 916 225T995 128L854 -4Q828 27 802 59T748 126Q722 76 682 45T586 -2T453 -17ZM459 159Q510 159 540 174T586 220T608 300Q542 391 479 487T360
683Q344 661 332 634T315 571Q311 532 309 498T306 421T308 309Q312 234 348 197T459 159ZM418 996Q468 1046 498 1095T542 1191T561 1283Q573 1372 549 1420T451 1468Q389 1468 364 1423T342 1305Q343 1237 364 1158T418 996Z" />
<glyph unicode="&apos;" horiz-adv-x="356" d="M126 1111L86 1361V1600H269V1361L230 1111H126Z" />
<glyph unicode="(" horiz-adv-x="525" d="M308 -400Q232 -279 177 -118T91 228T60 607Q60 783 87 964T169 1310T308 1600H465Q374 1372 327 1114T280 600Q280 430 301 256T364 -84T465 -400H308Z" />
<glyph unicode=")" horiz-adv-x="525" d="M217 -400H60Q120 -251 161 -85T223 256T244 600Q244 855 198 1113T60 1600H217Q301 1475 356 1311T438 965T465 607Q465 413 435 228T349 -118T217 -400Z" />
<glyph unicode="*" horiz-adv-x="509" d="M44 1325L181 1392L44 1459L91 1541L217 1456L207 1608H302L291 1457L418 1541L466 1459L329 1392L466 1325L418 1243L291 1329L302 1176H207L217 1327L91 1243L44 1325Z" />
<glyph unicode="+" horiz-adv-x="975" d="M406 350V663H93V827H406V1140H570V827H882V663H570V350H406Z" />
<glyph unicode="," horiz-adv-x="456" d="M121 -244L221 0H86V232H370V22L240 -244H121Z" />
<glyph unicode="-" horiz-adv-x="763" d="M60 642V834H703V642H60Z" />
<glyph unicode="." horiz-adv-x="455" d="M86 0V229H368V0H86Z" />
<glyph unicode="/" horiz-adv-x="736" d="M60 -400L460 1600H676L276 -400H60Z" />
<glyph unicode="0" horiz-adv-x="879" d="M439 -17Q276 -17 188 69T96 314Q94 471 93 636T93 966T96 1287Q100 1447 188 1532T439 1617Q600 1617 688 1532T780 1287Q783 1169 785 1046T787 799T785 553T780 314Q776 155 688 69T439 -17ZM439 162Q559 162 564 276Q570
457 571 639T572 995T564 1325Q561 1439 439 1439Q316 1439 313 1325Q309 1191 308 1056T306 786T307 524T313 276Q316 162 439 162Z" />
<glyph unicode="1" horiz-adv-x="473" d="M164 0V1395H79L73 1475L209 1600H380V0H164Z" />
<glyph unicode="2" horiz-adv-x="848" d="M98 0Q97 40 97 70T96 125T95 176T95 235T96 313Q99 434 129 522T216 674T352 787L463 857Q525 901 543 956T564 1064Q568 1129 568 1194T564 1324Q561 1382 530 1410T433 1439Q372 1439 343 1411T311 1324Q309 1249 309
1174T312 1023H98Q97 1068 96 1115T94 1206T95 1286Q102 1463 180 1540T434 1617Q557 1617 631 1584T740 1478T780 1287Q781 1262 782 1234T783 1176T783 1118T781 1064Q777 968 750 897T671 769T543 664L419 587Q381 561 358 516T325 418T314 313V192H766V0H98Z"
/>
<glyph unicode="3" horiz-adv-x="873" d="M428 -17Q243 -17 160 60T72 316Q71 355 71 388T70 457T72 542H288V289Q288 225 322 194T423 162Q489 162 521 193T555 289Q558 361 558 443T555 593Q552 662 522 703T405 742L255 741L248 923L520 1408H84V1600H768L765
1417L484 930Q631 919 697 841T771 595Q773 552 773 514T774 442T774 377T771 316Q764 138 685 61T428 -17Z" />
<glyph unicode="4" horiz-adv-x="896" d="M479 0V446H60V625L387 1600H682V636H838V446H682V0H479ZM268 636H479L506 1037L531 1408H484L386 1037L268 636Z" />
<glyph unicode="5" horiz-adv-x="892" d="M450 -17Q265 -17 182 60T94 316Q92 380 92 432T95 542H311Q308 503 308 458T307 368T310 289Q315 225 346 194T444 162Q510 162 541 193T576 289Q584 397 584 498T578 703Q575 762 545 790T457 819Q415 819 385 805T338
764T320 701H114V1600H776V1408H330V900H368Q390 942 438 971T554 1000Q672 1000 730 923T795 707Q798 636 798 570T798 440T793 316Q783 197 747 124T640 17T450 -17Z" />
<glyph unicode="6" horiz-adv-x="865" d="M434 -17Q255 -17 177 60T96 315Q94 454 93 591T92 855T93 1091T96 1285Q103 1455 189 1535T432 1616Q597 1616 683 1534T775 1285Q775 1261 775 1227T775 1159T773 1097H559Q561 1133 561 1166T562 1237T559 1323Q557
1379 528 1408T435 1438Q375 1438 345 1410T312 1323Q309 1226 308 1116T306 884H348Q371 927 422 955T541 983Q677 983 729 916T784 691Q786 621 786 558T786 435T783 315Q775 137 695 60T434 -17ZM436 161Q500 161 533 190T567 277Q569 333 569 386T570 491T570
590T568 686Q567 745 536 774T447 803Q384 803 346 774T306 689Q307 593 308 491T312 277Q314 219 345 190T436 161Z" />
<glyph unicode="7" horiz-adv-x="816" d="M147 0L540 1408H53V1600H756V1406L372 0H147Z" />
<glyph unicode="8" horiz-adv-x="866" d="M432 -17Q257 -17 177 60T89 316Q88 350 88 387T89 468T92 564Q100 661 135 716T241 802V839Q189 859 153 903T106 1020Q101 1064 99 1112T96 1205T96 1285Q104 1463 182 1540T432 1617Q605 1617 682 1540T768 1285Q770
1250 769 1205T766 1112T759 1020Q747 948 712 904T624 840V802Q689 771 726 715T772 564Q777 485 777 427T775 316Q768 138 688 61T432 -17ZM432 162Q498 162 528 193T559 289Q560 340 560 388T560 486T559 585Q558 651 528 683T432 716Q368 716 337 684T305 585Q304
509 304 437T305 289Q306 225 337 194T432 162ZM432 922Q497 922 527 954T559 1053Q559 1120 559 1182T559 1312Q558 1376 528 1407T432 1439Q368 1439 337 1408T305 1312Q305 1278 305 1246T304 1182T304 1118T305 1053Q306 987 337 955T432 922Z" />
<glyph unicode="9" horiz-adv-x="864" d="M436 -17Q258 -17 180 60T101 314Q101 338 101 372T101 441T103 502H317Q316 448 316 394T317 276Q320 220 345 191T433 161Q493 161 520 189T550 276Q553 366 555 476T559 709H523Q502 666 456 638T341 609Q270 609 211
640T115 738T78 914Q78 955 78 1002T77 1098T77 1195T79 1284Q84 1462 166 1539T428 1616Q608 1616 685 1539T766 1284Q770 1110 770 948T770 629T766 314Q763 137 685 60T436 -17ZM424 790Q483 790 518 816T559 892Q558 998 556 1105T550 1322Q549 1381 518 1409T426
1438Q363 1438 330 1410T296 1322Q296 1276 296 1224T295 1118T294 1009T294 906Q296 848 331 819T424 790Z" />
<glyph unicode=":" horiz-adv-x="455" d="M86 600V829H368V600H86ZM86 0V229H368V0H86Z" />
<glyph unicode=";" horiz-adv-x="456" d="M121 -244L221 0H86V232H370V22L240 -244H121ZM86 602V831H368V602H86Z" />
<glyph unicode="&lt;" horiz-adv-x="997" d="M904 488L93 616V885L904 1017V839L506 789L255 775V727L506 713L904 666V488Z" />
<glyph unicode="=" horiz-adv-x="935" d="M93 820V985H842V820H93ZM93 508V673H842V508H93Z" />
<glyph unicode="&gt;" horiz-adv-x="997" d="M93 488V666L491 713L742 727V775L492 789L93 839V1017L904 885V616L93 488Z" />
<glyph unicode="?" horiz-adv-x="803" d="M297 380L291 566Q288 638 298 688T340 775T429 846L466 865Q491 879 503 904T518 966T522 1053V1325Q522 1383 491 1411T398 1440Q340 1440 311 1412T278 1325Q274 1249 274 1174T277 1024H67Q66 1064 66 1107T65 1196T66
1287Q73 1465 149 1541T396 1618Q579 1618 658 1542T738 1288Q738 1221 738 1179T739 1109T739 1053Q738 956 723 896T685 800T631 746T570 711L527 689Q487 670 479 635T468 565L460 380H297ZM238 0V229H520V0H238Z" />
<glyph unicode="@" horiz-adv-x="1213" d="M606 -279Q429 -279 318 -241T153 -121T98 96Q96 225 95 344T93 580T94 822T98 1085Q100 1225 153 1311T317 1436T606 1476Q780 1476 891 1436T1057 1310T1116 1083Q1118 975 1118 881T1119 701T1118 535T1115 369Q1112
281 1054 238T891 194Q790 194 742 219T678 288H642Q620 244 594 218T514 192Q443 192 408 239T365 398Q362 464 361 539T361 686T365 818Q371 928 409 976T517 1024Q566 1024 592 1001T642 929H665V1011H834L835 373Q835 340 849 323T891 306Q916 306 929 323T945
375Q948 443 949 523T951 694T951 885T947 1093Q942 1219 864 1274T606 1330Q429 1330 351 1276T269 1093Q265 963 264 837T262 586T263 338T269 86Q273 -32 351 -83T606 -134Q781 -134 859 -84T939 86Q939 99 939 108T938 136H1105Q1106 116 1106 107T1106 86Q1105
-46 1054 -126T893 -243T606 -279ZM584 315Q607 315 632 334T666 382L665 835Q655 865 630 882T584 899Q559 899 547 883T533 833Q530 757 529 685T529 538T535 383Q537 345 548 330T584 315Z" />
<glyph unicode="A" horiz-adv-x="816" d="M32 0L228 1600H588L784 0H563L525 399H291L254 0H32ZM312 591H505L471 943L436 1408H380L346 943L312 591Z" />
<glyph unicode="B" horiz-adv-x="819" d="M93 0V1600H397Q577 1600 659 1525T743 1276Q744 1212 744 1162T742 1063Q737 967 702 911T592 829V787Q669 761 705 705T744 550Q746 489 746 438T744 324Q737 151 657 76T397 0H93ZM309 192H397Q462 192 494 225T528
327Q529 383 529 433T528 540Q527 634 496 674T393 714H309V192ZM309 906H396Q461 906 493 947T527 1068Q529 1126 529 1178T527 1287Q526 1348 494 1378T397 1408H309V906Z" />
<glyph unicode="C" horiz-adv-x="839" d="M425 -17Q243 -17 166 60T85 315Q83 427 82 550T81 800T82 1050T85 1287Q87 1443 167 1529T424 1616Q600 1616 679 1540T764 1285Q765 1250 765 1202T764 1106T762 1022H546Q547 1066 547 1119T548 1225T547 1323Q546
1382 516 1410T424 1438Q363 1438 333 1410T301 1323Q297 1196 296 1065T294 800T295 535T301 277Q303 218 333 190T425 161Q490 161 522 189T555 277Q556 322 556 377T556 488T554 588H771Q773 522 773 452T772 315Q766 137 686 60T425 -17Z" />
<glyph unicode="D" horiz-adv-x="855" d="M93 0V1600H424Q605 1600 686 1522T770 1262Q773 1097 774 949T774 653T770 339Q767 158 686 79T423 0H93ZM309 192H423Q489 192 521 222T554 315Q557 437 558 558T559 801T558 1043T554 1287Q553 1348 521 1378T424 1408H309V192Z"
/>
<glyph unicode="E" horiz-adv-x="709" d="M93 0V1600H664V1408H309V906H644V714H309V192H664V0H93Z" />
<glyph unicode="F" horiz-adv-x="700" d="M93 0V1600H664V1408H309V906H644V714H309V0H93Z" />
<glyph unicode="G" horiz-adv-x="842" d="M428 -17Q306 -17 233 16T125 123T86 316Q83 426 82 548T81 796T82 1043T86 1274Q91 1398 126 1473T234 1583T427 1617Q598 1617 676 1540T765 1286Q768 1224 768 1155T765 1023H549Q552 1091 552 1173T549 1324Q546 1382
516 1410T427 1439Q366 1439 336 1411T302 1324Q298 1199 296 1067T293 801T295 535T302 278Q305 219 335 191T428 162Q490 162 524 190T561 278Q562 316 562 362T563 454T561 539H439V728H772Q775 644 775 538T770 316Q763 138 684 61T428 -17Z" />
<glyph unicode="H" horiz-adv-x="851" d="M93 0V1600H309V906H542V1600H758V0H542V714H309V0H93Z" />
<glyph unicode="I" horiz-adv-x="402" d="M93 0V1600H309V0H93Z" />
<glyph unicode="J" horiz-adv-x="781" d="M373 -17Q254 -17 184 16T82 123T47 316Q45 382 45 452T47 589H251Q249 544 249 489T248 378T251 278Q253 219 281 191T373 162Q436 162 463 190T490 278V1600H706V316Q706 138 631 61T373 -17Z" />
<glyph unicode="K" horiz-adv-x="842" d="M93 0V1600H323L320 1217L284 833H327L439 1235L566 1600H803L551 913L821 0H601L409 668L313 442V0H93Z" />
<glyph unicode="L" horiz-adv-x="691" d="M93 0V1600H309V192H666V0H93Z" />
<glyph unicode="M" horiz-adv-x="1272" d="M93 0V1600H455L569 970L614 195H659L702 970L818 1600H1180V0H963V479L1004 1408H954L859 466L761 3H511L415 466L318 1408H271L309 479V0H93Z" />
<glyph unicode="N" horiz-adv-x="946" d="M93 0V1600H423L527 1092L650 192H699L659 974L643 1600H853V0H508L398 549L300 1409H248L285 606L302 0H93Z" />
<glyph unicode="O" horiz-adv-x="856" d="M428 -17Q248 -17 169 59T86 314Q83 434 82 556T81 800T82 1044T86 1287Q89 1464 168 1540T428 1617Q608 1617 686 1541T769 1287Q773 1165 774 1043T776 799T775 556T769 314Q765 136 687 60T428 -17ZM428 162Q492 162
522 189T553 276Q558 400 559 533T561 803T559 1071T553 1325Q552 1384 522 1411T428 1439Q365 1439 335 1412T302 1325Q298 1203 296 1071T293 803T296 534T302 276Q304 217 334 190T428 162Z" />
<glyph unicode="P" horiz-adv-x="806" d="M93 0V1600H408Q587 1600 667 1525T754 1276Q758 1167 758 1078T754 891Q748 718 668 643T407 567H309V0H93ZM309 759H407Q472 759 503 789T538 880Q541 944 542 1014T542 1153T538 1287Q535 1348 504 1378T408 1408H309V759Z" />
<glyph unicode="Q" horiz-adv-x="856" d="M745 -218Q605 -228 529 -181T427 -17Q248 -17 169 59T86 314Q83 434 82 556T81 800T82 1044T86 1287Q89 1464 168 1540T428 1617Q608 1617 686 1541T769 1287Q773 1165 774 1043T776 799T775 556T769 314Q767 200 733
130T628 25Q638 -16 667 -32T745 -44V-218ZM428 162Q492 162 522 189T553 276Q558 400 559 533T561 803T559 1071T553 1325Q552 1384 522 1411T428 1439Q365 1439 335 1412T302 1325Q298 1203 296 1071T293 803T296 534T302 276Q304 217 334 190T428 162Z" />
<glyph unicode="R" horiz-adv-x="825" d="M93 0V1600H408Q587 1600 667 1525T754 1276Q757 1203 757 1143T758 1024T754 900Q751 787 716 717T606 612L781 0H551L402 576H309V0H93ZM309 767H407Q472 767 503 797T538 889Q541 953 542 1020T542 1155T538 1287Q535
1348 504 1378T408 1408H309V767Z" />
<glyph unicode="S" horiz-adv-x="815" d="M410 -17Q231 -17 154 60T70 316Q69 363 69 407T69 497T75 589H279Q275 509 275 429T279 278Q283 219 314 191T409 162Q472 162 500 190T534 278Q537 323 538 362T538 441T534 529Q530 588 510 630T437 686L303 720Q213
743 162 787T89 901T64 1066Q63 1120 63 1176T65 1287Q69 1405 103 1477T212 1583T409 1617Q582 1617 659 1540T744 1286Q746 1237 745 1166T741 1023H533Q536 1098 536 1173T534 1324Q533 1382 501 1410T408 1439Q344 1439 315 1411T281 1324Q276 1260 276 1195T281
1066Q285 1002 306 963T382 910L503 881Q598 859 651 813T726 696T751 529Q753 487 753 453T752 387T750 316Q743 138 666 61T410 -17Z" />
<glyph unicode="T" horiz-adv-x="699" d="M241 0V1408H11V1600H688V1408H458V0H241Z" />
<glyph unicode="U" horiz-adv-x="839" d="M420 -17Q238 -17 160 59T79 314Q75 634 75 957T79 1600H295Q292 1387 291 1163T291 714T294 276Q294 219 326 191T420 162Q483 162 513 190T544 276Q546 489 547 713T548 1162T544 1600H760Q765 1281 765 958T760 314Q758
136 680 60T420 -17Z" />
<glyph unicode="V" horiz-adv-x="837" d="M236 0L35 1600H259L362 753L391 192H446L475 753L578 1600H803L602 0H236Z" />
<glyph unicode="W" horiz-adv-x="1331" d="M180 0L49 1600H267L311 933L347 192H396L416 933L513 1590H819L917 933L934 192H982L1020 933L1064 1600H1281L1150 0H785L725 486L691 1405H640L605 486L545 0H180Z" />
<glyph unicode="X" horiz-adv-x="800" d="M35 0L249 824L42 1600H253L341 1224L382 911H421L461 1224L547 1600H758L559 817L765 0H554L463 395L421 719H382L340 395L246 0H35Z" />
<glyph unicode="Y" horiz-adv-x="791" d="M287 0V400V402L28 1600H249L330 1180L372 716H418L459 1180L541 1600H763L503 401V399V0H287Z" />
<glyph unicode="Z" horiz-adv-x="716" d="M34 0V179L450 1408H57V1600H681V1417L251 192H648V0H34Z" />
<glyph unicode="[" horiz-adv-x="604" d="M93 -400V1600H544V1492H309V-292H544V-400H93Z" />
<glyph unicode="\" horiz-adv-x="736" d="M676 -400H460L60 1600H276L676 -400Z" />
<glyph unicode="]" horiz-adv-x="604" d="M525 -400H74V-292H309V1492H74V1600H525V-400Z" />
<glyph unicode="^" horiz-adv-x="782" d="M93 897L319 1379H463L689 897H546L392 1230L237 897H93Z" />
<glyph unicode="_" horiz-adv-x="1312" d="M60 -120V-80H1252V-120H60Z" />
<glyph unicode="`" horiz-adv-x="490" d="M255 1280L95 1532H240L394 1280H255Z" />
<glyph unicode="a" horiz-adv-x="823" d="M302 -14Q187 -14 133 46T67 243Q66 265 66 291T66 338Q72 414 97 471T177 573T322 659Q370 681 418 699T517 734V939Q517 996 495 1024T411 1052Q358 1052 335 1029T308 946Q307 927 307 893T306 824T308 765H98Q97 790
96 838T96 923Q100 1026 132 1091T233 1186T417 1217Q537 1217 605 1184T703 1078T732 890L731 0H515V119H485Q456 52 416 19T302 -14ZM387 144Q432 144 464 170T516 242V584Q481 573 446 559T375 520Q320 487 302 442T280 338Q279 319 279 299T280 259Q285 203
312 174T387 144Z" />
<glyph unicode="b" horiz-adv-x="861" d="M541 -17Q459 -17 417 17T339 118H312V0H96V1600H312V1082H352Q388 1148 430 1182T554 1217Q664 1217 718 1151T779 929Q781 858 782 772T784 596T783 422T779 271Q773 117 712 50T541 -17ZM466 144Q516 144 538 170T563
253Q567 327 568 412T570 589T569 772T563 947Q561 1004 539 1030T466 1056Q418 1056 375 1030T312 952V248Q331 197 374 171T466 144Z" />
<glyph unicode="c" horiz-adv-x="799" d="M519 765Q520 790 520 825T521 893T520 946Q518 1005 493 1028T409 1052Q351 1052 326 1029T298 946Q296 857 295 772T294 602T295 434T298 261Q300 198 326 173T412 148Q468 148 493 173T520 261Q521 292 521 337T519
439H730Q732 411 733 365T732 283Q725 123 651 53T412 -17Q243 -17 166 53T81 283Q79 340 78 422T77 595T78 770T81 914Q92 1077 167 1147T409 1217Q576 1217 651 1149T732 922Q733 886 733 840T730 765H519Z" />
<glyph unicode="d" horiz-adv-x="861" d="M311 -17Q201 -17 145 50T81 271Q79 337 78 421T77 596T78 772T81 929Q88 1084 146 1150T314 1217Q396 1217 438 1183T516 1082H549V1600H765V0H549V118H515Q479 53 436 18T311 -17ZM395 144Q444 144 487 170T549 248V952Q530
1004 487 1030T395 1056Q346 1056 323 1030T298 947Q293 835 292 712T292 471T298 253Q300 196 322 170T395 144Z" />
<glyph unicode="e" horiz-adv-x="801" d="M413 -17Q243 -17 167 53T81 283Q79 340 78 422T77 595T78 770T81 914Q92 1077 168 1147T411 1217Q575 1217 649 1149T732 923Q733 896 733 839T734 708T730 561H294Q294 488 295 414T298 261Q300 198 326 173T412 148Q468
148 492 173T519 261Q521 291 521 337T519 439H730Q732 412 733 366T732 283Q724 123 652 53T413 -17ZM294 716H521Q522 765 522 812T521 894T519 946Q516 1003 492 1027T411 1052Q352 1052 326 1028T298 946Q297 885 296 828T294 716Z" />
<glyph unicode="f" horiz-adv-x="575" d="M132 0V1034H18V1200H132V1320Q131 1480 211 1549T460 1619Q491 1619 526 1615T593 1605V1445Q562 1447 529 1448T461 1449Q403 1449 375 1422T348 1336V1200H552V1034H348V0H132Z" />
<glyph unicode="g" horiz-adv-x="865" d="M403 -364Q249 -364 168 -320T73 -188Q71 -177 70 -161T69 -129Q74 -78 108 -43T197 -1V33Q148 44 120 71T85 143Q84 155 84 166T85 192Q90 235 125 262T211 297V331Q141 363 108 428T67 598Q66 647 65 685T64 757T65
830T67 914Q73 1020 106 1086T211 1185T402 1217Q518 1217 585 1187T688 1090H722Q729 1147 763 1173T863 1200V1034H831Q786 1034 761 1007T735 915L734 831Q735 800 735 773T735 720T735 664T732 598Q726 489 692 422T587 326T400 296Q315 297 282 281T248 229V220Q248
197 258 184T301 164T401 156Q577 152 662 100T762 -66Q764 -83 764 -101T762 -141Q754 -221 711 -270T591 -341T403 -364ZM408 -211Q460 -211 497 -203T556 -175T583 -126Q587 -112 587 -100T582 -74Q576 -42 555 -25T497 -1T409 7Q331 9 292 -9T245 -74Q242 -87
242 -100T244 -126Q249 -158 268 -176T323 -203T408 -211ZM400 460Q467 460 491 487T520 570Q522 607 523 654T524 753T523 853T520 941Q516 1000 490 1026T400 1052Q335 1052 308 1026T279 939Q277 886 276 836T275 740T276 653T279 574Q282 520 306 490T400 460Z"
/>
<glyph unicode="h" horiz-adv-x="873" d="M96 0V1600H312V1082H352Q388 1148 430 1182T554 1217Q664 1217 723 1151T782 929V0H566V947Q566 1004 541 1030T466 1056Q418 1056 375 1030T312 952V0H96Z" />
<glyph unicode="i" horiz-adv-x="408" d="M77 1407V1600H332V1407H77ZM96 0V1200H312V0H96Z" />
<glyph unicode="j" horiz-adv-x="410" d="M78 1407V1600H333V1407H78ZM-17 -418Q-47 -418 -83 -414T-150 -405V-242Q-124 -245 -86 -246T-18 -248Q40 -248 68 -221T97 -135V1200H313V-119Q313 -278 233 -348T-17 -418Z" />
<glyph unicode="k" horiz-adv-x="776" d="M96 0V1600H298V1233L274 701H311L396 941L507 1200H731L507 727L774 0H552L371 506L303 381V0H96Z" />
<glyph unicode="l" horiz-adv-x="408" d="M96 0V1600H312V0H96Z" />
<glyph unicode="m" horiz-adv-x="1333" d="M96 0V1200H312V1082H351Q387 1148 429 1182T554 1217Q635 1217 687 1182T762 1068H799Q835 1135 884 1176T1016 1217Q1125 1217 1183 1151T1242 929V0H1026V947Q1026 1004 1002 1030T928 1056Q882 1056 842 1027T781
948V0H565V947Q564 1004 540 1030T466 1056Q418 1056 375 1030T312 952V0H96Z" />
<glyph unicode="n" horiz-adv-x="873" d="M96 0V1200H312V1082H352Q387 1147 430 1182T554 1217Q664 1217 722 1151T782 929V0H566V947Q565 1004 541 1030T466 1056Q420 1056 376 1029T312 952V0H96Z" />
<glyph unicode="o" horiz-adv-x="835" d="M418 -17Q298 -17 227 16T122 122T82 314Q80 371 79 445T77 598T78 752T82 887Q89 1005 122 1077T226 1183T418 1217Q540 1217 610 1184T714 1078T753 887Q755 829 756 756T757 603T756 449T753 314Q747 196 714 123T611
17T418 -17ZM418 148Q481 148 508 175T536 262Q539 350 540 434T542 601T541 767T536 939Q535 998 509 1025T418 1052Q356 1052 328 1025T298 939Q296 851 295 767T293 600T294 433T298 262Q300 202 328 175T418 148Z" />
<glyph unicode="p" horiz-adv-x="861" d="M96 -400V1200H312V1082H346Q381 1148 423 1182T547 1217Q657 1217 715 1151T779 929Q781 872 782 787T784 607T783 424T779 271Q773 117 710 50T536 -17Q473 -17 429 14T346 118H312V-400H96ZM452 144Q503 144 532 170T563
253Q567 338 568 427T570 606T568 783T563 947Q561 1004 539 1030T466 1056Q418 1056 375 1030T312 952V248Q333 192 366 168T452 144Z" />
<glyph unicode="q" horiz-adv-x="861" d="M549 -400V118H518Q480 46 436 15T327 -17Q218 -17 153 50T81 271Q80 328 79 413T77 592T78 775T81 929Q88 1084 146 1150T313 1217Q396 1217 437 1183T515 1082H549V1200H765V-400H549ZM408 144Q462 144 495 168T549
248V952Q530 1004 487 1030T395 1056Q345 1056 323 1030T298 947Q293 831 292 709T291 470T298 253Q300 196 329 170T408 144Z" />
<glyph unicode="r" horiz-adv-x="598" d="M96 0V1200H312V1068H352Q365 1145 404 1175T509 1205Q530 1205 550 1204T583 1202V1034H511Q412 1034 369 1001T312 903V0H96Z" />
<glyph unicode="s" horiz-adv-x="759" d="M373 -17Q212 -17 144 53T69 283Q68 319 68 365T71 439H261Q260 383 260 338T261 261Q263 198 290 173T373 148Q438 148 466 173T496 261Q496 288 496 301T496 327T496 365Q496 417 480 447T421 491L303 527Q224 552 171
588T92 683T64 829Q64 851 64 871T65 913Q66 1076 136 1146T384 1217Q547 1217 613 1149T687 922Q688 886 688 840T685 765H488Q489 790 489 825T490 893T488 946Q486 1005 464 1028T384 1052Q324 1052 301 1029T276 946Q275 917 274 900T274 846Q274 790 288 754T354
702L460 673Q579 643 638 576T697 376Q697 353 697 327T695 277Q694 120 621 52T373 -17Z" />
<glyph unicode="t" horiz-adv-x="588" d="M473 -17Q289 -17 213 53T136 283V1034H38V1200H138V1540H355V1200H546V1034H352V259Q352 196 374 172T474 147Q500 147 520 148T566 151V-7Q545 -12 522 -14T473 -17Z" />
<glyph unicode="u" horiz-adv-x="867" d="M321 -17Q212 -17 150 50T88 271V1200H304V253Q304 196 327 170T401 144Q448 144 492 171T555 248V1200H771V0H555V118H523Q485 48 437 16T321 -17Z" />
<glyph unicode="v" horiz-adv-x="752" d="M191 0L28 1200H248L314 596L343 162H405L435 596L504 1200H724L557 0H191Z" />
<glyph unicode="w" horiz-adv-x="1288" d="M171 0L31 1200H248L298 596L322 162H388L406 596L460 1197H825L877 596L895 162H961L986 596L1038 1200H1256L1113 0H736L701 464L677 1035H607L582 464L547 0H171Z" />
<glyph unicode="x" horiz-adv-x="712" d="M20 0L200 626L24 1200H233L300 946L332 714H380L413 946L480 1200H689L511 621L693 0H484L410 307L380 555H333L304 307L229 0H20Z" />
<glyph unicode="y" horiz-adv-x="769" d="M197 -414Q167 -414 128 -411T58 -402V-239Q84 -241 125 -243T196 -245Q273 -245 301 -220T338 -131L355 0H226L36 1200H256L317 636L369 162H430L467 636L520 1200H739L554 -115Q539 -221 502 -287T391 -383T197 -414Z" />
<glyph unicode="z" horiz-adv-x="681" d="M38 0V138L413 1038L46 1037V1199L644 1200V1058L264 162H637V0H38Z" />
<glyph unicode="{" horiz-adv-x="677" d="M617 -403Q505 -403 415 -369T271 -259T217 -60Q217 -36 218 9T222 110T226 218T229 312T230 370Q230 451 204 474T128 497H60V698H128Q177 699 203 721T230 825Q230 842 229 883T227 977T223 1086T220 1188T219 1257Q219
1381 272 1456T415 1566T617 1600V1490Q567 1490 525 1459T457 1375T431 1257Q431 1237 432 1201T434 1120T437 1031T440 949T441 889Q441 781 401 708T276 617V581Q360 564 400 490T441 309Q441 286 440 249T438 166T435 77T432 -3T431 -60Q431 -125 456 -177T524
-261T617 -292V-403Z" />
<glyph unicode="|" horiz-adv-x="402" d="M93 1820H309V-240H93V1820Z" />
<glyph unicode="}" horiz-adv-x="664" d="M47 -403V-292Q98 -292 140 -261T207 -178T233 -60Q233 -40 232 -4T230 77T227 166T224 248T223 309Q223 416 264 490T388 581V617Q305 634 264 707T223 889Q223 911 224 948T226 1031T229 1120T232 1200T233 1257Q233
1322 208 1374T140 1458T47 1490V1600Q158 1600 248 1566T392 1457T445 1257Q445 1234 444 1188T442 1087T438 978T435 883T433 825Q433 744 460 722T536 698H604V497H536Q487 497 460 474T433 370Q433 353 434 312T438 218T442 110T445 10T446 -60Q446 -183 393
-258T249 -368T47 -403Z" />
<glyph unicode="~" horiz-adv-x="992" d="M650 610Q594 611 553 630T479 675T412 720T340 744Q287 748 254 717T214 626H93Q104 775 173 840T347 901Q409 898 450 879T523 834T585 790T655 770Q710 767 742 795T778 875H899Q892 734 825 670T650 610Z" />
<glyph unicode="&#xa0;" horiz-adv-x="427" />
<glyph unicode="&#xa1;" horiz-adv-x="455" d="M149 822H307L337 -9V-400H118V-9L149 822ZM86 1200H368V971H86V1200Z" />
<glyph unicode="&#xa2;" horiz-adv-x="799" d="M311 0V192Q195 209 142 279T81 483Q79 540 78 622T77 795T78 970T81 1114Q88 1251 142 1321T311 1409V1600H500V1410Q618 1395 672 1326T732 1122Q733 1086 733 1040T730 965H519Q520 990 520 1025T521 1093T519
1146Q517 1205 492 1228T409 1252Q351 1252 326 1229T298 1146Q296 1057 295 972T294 802T295 634T298 461Q300 398 326 373T412 348Q468 348 492 373T519 461Q521 492 521 537T519 639H730Q732 611 733 565T732 483Q726 346 672 276T500 189V0H311Z" />
<glyph unicode="&#xa3;" horiz-adv-x="913" d="M132 0V186Q165 206 186 262T218 401T229 587Q229 638 225 681T215 764H95V874H188Q173 934 159 994T135 1125T125 1287Q127 1443 207 1529T465 1616Q641 1616 720 1540T804 1285Q805 1250 805 1202T804 1106T802
1022H586Q587 1055 587 1094T588 1173T589 1251T588 1323Q587 1382 557 1410T465 1438Q404 1438 374 1410T341 1323Q341 1242 353 1170T382 1025T414 874H591V764H428Q433 730 435 694T438 619Q438 480 410 383T335 229V192H820V0H132Z" />
<glyph unicode="&#xa4;" horiz-adv-x="1096" d="M191 53L98 132L244 304Q225 341 216 390T202 500Q200 558 199 631T197 784T198 939T202 1074Q206 1137 216 1187T247 1275L96 1450L185 1528L330 1361Q404 1403 538 1403Q685 1403 760 1352L915 1525L1003 1444L835
1259Q852 1224 861 1178T872 1074Q875 1016 876 942T877 789T876 635T872 500Q870 443 861 397T834 313L988 133L898 53L757 218Q685 170 538 170Q400 170 326 215L191 53ZM538 335Q601 335 628 362T656 449Q659 537 660 620T662 787T661 954T656 1125Q655 1185
629 1212T538 1239Q475 1239 448 1212T418 1125Q416 1038 415 954T413 787T414 620T418 449Q420 389 448 362T538 335Z" />
<glyph unicode="&#xa5;" horiz-adv-x="791" d="M287 0V147H106V230H287V285H106V368H287V398V400L28 1600H250L331 1180L372 716H418L460 1180L541 1600H763L504 400V398V368H686V285H504V230H686V147H504V0H287Z" />
<glyph unicode="&#xa6;" horiz-adv-x="402" d="M93 1820H309V1016H93V1820ZM93 536H309V-240H93V536Z" />
<glyph unicode="&#xa7;" horiz-adv-x="824" d="M405 -417Q297 -417 232 -392T136 -307T100 -139Q99 -115 99 -80T100 -13T102 39H293Q292 2 292 -31T291 -91T292 -139Q295 -202 322 -227T405 -252Q470 -252 498 -227T527 -139Q528 -102 528 -62T528 14Q527 67
515 98T453 141L345 170Q229 200 165 260T96 438Q94 509 94 567T96 703Q98 790 133 844T221 922V959Q168 980 134 1022T95 1153Q93 1195 93 1246T96 1332Q105 1440 135 1499T231 1580T416 1603Q578 1603 645 1535T718 1309Q720 1273 720 1230T716 1138H519Q520
1170 521 1208T522 1279T520 1332Q517 1392 495 1408T416 1425Q356 1425 334 1409T307 1332Q305 1304 304 1247T304 1153Q307 1097 319 1064T385 1019L491 993Q603 967 662 893T728 697Q732 616 732 561T727 438Q722 364 689 316T606 245V214Q663 191 695 138T730
7Q731 -27 730 -68T727 -139Q720 -243 689 -303T589 -390T405 -417ZM419 330Q482 330 505 363T533 444Q536 482 537 528T537 620T533 703Q528 751 506 783T419 815Q356 815 330 783T299 703Q295 649 295 574T299 444Q306 395 331 363T419 330Z" />
<glyph unicode="&#xa8;" horiz-adv-x="626" d="M373 1310V1464H527V1310H373ZM127 1310V1464H280V1310H127Z" />
<glyph unicode="&#xa9;" horiz-adv-x="1273" d="M637 -10Q457 -10 336 58T154 261T93 600Q93 803 154 938T336 1142T637 1210Q907 1210 1043 1058T1180 600Q1180 397 1120 262T938 58T637 -10ZM637 98Q847 98 953 223T1059 600Q1059 852 953 977T637 1102Q426
1102 320 978T214 600Q214 348 320 223T637 98ZM640 206Q526 206 475 254T417 413Q416 445 415 492T414 592T415 694T417 779Q423 892 474 940T639 989Q754 989 803 941T858 785Q860 765 859 748T856 715H723Q725 735 724 758T723 798Q723 846 704 864T639 882Q595
882 576 864T554 798Q552 724 552 660T553 533T554 398Q555 349 575 331T640 312Q684 312 702 330T723 398Q725 418 725 435T723 486H856Q858 469 859 452T858 413Q851 303 803 255T640 206Z" />
<glyph unicode="&#xaa;" horiz-adv-x="717" d="M281 754Q191 754 150 796T95 941Q94 956 94 972T94 1006Q102 1089 145 1139T299 1231Q337 1246 374 1258T456 1281Q456 1315 455 1348T452 1413Q451 1449 436 1468T368 1488Q326 1488 308 1473T284 1416Q283 1408
283 1382T284 1329T285 1294H119Q118 1302 118 1323T117 1367T117 1400Q124 1512 178 1564T373 1617Q469 1617 522 1592T598 1514T623 1374Q624 1340 624 1283T624 1157T624 1015T623 878T623 765H451Q451 787 451 808T453 851H428Q405 804 374 779T281 754ZM348
878Q383 878 411 895T456 946Q456 1001 456 1055T456 1164Q427 1158 397 1148T339 1123Q295 1103 281 1074T262 1006Q262 997 262 981T263 955Q264 916 288 897T348 878Z" />
<glyph unicode="&#xab;" horiz-adv-x="673" d="M562 843L276 522V729L562 1049V843ZM562 202L276 522V729L562 409V202ZM574 843L288 522V729L574 1049V843ZM574 202L288 522V729L574 409V202Z" />
<glyph unicode="&#xac;" horiz-adv-x="935" d="M678 476V820H93V985H842V476H678Z" />
<glyph unicode="&#xad;" horiz-adv-x="763" d="M60 642V834H703V642H60Z" />
<glyph unicode="&#xae;" horiz-adv-x="863" d="M434 1001Q266 1001 180 1096T93 1375Q93 1562 179 1656T434 1751Q600 1751 685 1657T771 1375Q771 1191 686 1096T434 1001ZM434 1070Q571 1070 636 1144T702 1375Q702 1534 637 1608T434 1682Q295 1682 229 1608T162
1375Q162 1218 228 1144T434 1070ZM333 1176V1600H439Q497 1600 523 1577T553 1498Q553 1486 553 1476T553 1453Q552 1422 538 1404T495 1378V1366Q524 1360 537 1342T551 1291Q552 1274 553 1257T554 1220T553 1176H476Q477 1208 477 1241T474 1302Q472 1342 439
1342H410V1176H333ZM410 1410H440Q457 1410 466 1418T475 1445Q476 1459 476 1473T475 1503Q475 1532 439 1532H410V1410Z" />
<glyph unicode="&#xaf;" horiz-adv-x="829" d="M127 1373H683V1269H127V1373Z" />
<glyph unicode="&#xb0;" horiz-adv-x="624" d="M313 1182Q253 1182 203 1212T123 1291T93 1400Q93 1460 123 1510T203 1590T313 1620Q372 1620 421 1590T501 1510T531 1400Q531 1341 501 1292T422 1212T313 1182ZM313 1275Q365 1275 401 1312T438 1400Q438 1453
402 1490T313 1527Q260 1527 223 1490T186 1400Q186 1349 223 1312T313 1275Z" />
<glyph unicode="&#xb1;" horiz-adv-x="975" d="M406 511V663H93V827H406V1020H570V827H882V663H570V511H406ZM93 286V421H882V286H93Z" />
<glyph unicode="&#xb2;" horiz-adv-x="535" d="M63 879Q62 925 62 956T63 1031Q64 1107 105 1157T212 1241L278 1275Q305 1291 312 1308T323 1354Q325 1376 325 1396T323 1438Q322 1457 310 1469T270 1482Q222 1482 220 1439Q217 1407 218 1375T220 1322H66Q65
1344 64 1370T64 1419Q67 1514 120 1561T269 1609Q373 1609 426 1561T480 1419Q480 1409 480 1399T481 1378T481 1354Q480 1281 444 1237T340 1159L261 1122Q247 1112 236 1093T225 1049V1017H465V879H63Z" />
<glyph unicode="&#xb3;" horiz-adv-x="546" d="M276 870Q171 870 114 915T56 1049Q56 1060 56 1069T55 1089T57 1116H213Q212 1098 212 1081T212 1050Q213 1026 227 1012T271 997Q301 997 315 1010T330 1046Q330 1068 330 1090T330 1135Q330 1163 315 1177T269
1191H170L166 1306L285 1462H70V1600H477L475 1466L339 1312Q409 1302 448 1260T488 1138Q488 1124 488 1108T488 1076T488 1049Q487 963 434 917T276 870Z" />
<glyph unicode="&#xb4;" horiz-adv-x="483" d="M85 1280L252 1532H398L224 1280H85Z" />
<glyph unicode="&#xb5;" horiz-adv-x="899" d="M96 -400L93 1200H309L311 253Q311 196 335 170T409 144Q456 144 499 171T560 248V1200H776V220Q776 148 783 91T806 0H590Q581 21 575 51T564 118H528Q504 71 474 42T405 -1Q355 -15 312 -5V-400H96Z" />
<glyph unicode="&#xb6;" horiz-adv-x="1008" d="M498 -200V750H431Q311 750 240 783T136 889T95 1081Q94 1109 94 1143T93 1211T95 1272Q101 1390 134 1462T239 1567T431 1600H915V1479H833V-200H698V1479H632V-200H498Z" />
<glyph unicode="&#xb7;" horiz-adv-x="340" d="M86 751V918H254V751H86Z" />
<glyph unicode="&#xb8;" horiz-adv-x="436" d="M76 -299V-192H137Q191 -192 213 -170T228 -95L212 0H328L343 -95Q359 -202 309 -250T137 -299H76Z" />
<glyph unicode="&#xb9;" horiz-adv-x="370" d="M128 882V1469H44L42 1523L163 1602H286V882H128Z" />
<glyph unicode="&#xba;" horiz-adv-x="726" d="M362 753Q223 753 164 808T98 1000Q97 1019 96 1055T95 1135T94 1225T95 1308T98 1371Q105 1461 131 1515T212 1593T359 1617Q508 1617 565 1558T630 1371Q631 1347 632 1309T633 1225T634 1136T633 1055T630 1000Q623
915 599 860T518 779T362 753ZM364 881Q416 881 437 899T459 958Q462 1026 463 1082T464 1191T463 1297T459 1413Q458 1452 437 1470T364 1489Q315 1489 293 1471T269 1413Q265 1331 264 1262T263 1121T269 958Q271 918 293 900T364 881Z" />
<glyph unicode="&#xbb;" horiz-adv-x="673" d="M368 843V1049L653 729V522L368 843ZM368 202V409L653 729V522L368 202ZM99 843V1049L385 729V522L99 843ZM99 202V409L385 729V522L99 202Z" />
<glyph unicode="&#xbc;" horiz-adv-x="931" d="M128 881V1468H44L42 1522L163 1601H286V881H128ZM-141 0L743 1600H909L23 0H-141ZM808 720V307H888V171H808V0H660V171H421V302L607 720H808ZM660 307L681 463L699 582H671L630 463L576 307H660Z" />
<glyph unicode="&#xbd;" horiz-adv-x="948" d="M128 881V1468H44L42 1522L163 1601H286V881H128ZM-141 0L743 1600H909L23 0H-141ZM476 0Q475 46 475 77T476 152Q477 228 518 278T625 362L691 396Q718 412 725 429T736 475Q738 497 738 517T736 559Q735 578 723
590T683 603Q635 603 633 560Q630 528 631 496T633 443H479Q478 465 477 491T477 540Q480 635 533 682T682 730Q786 730 839 682T893 540Q893 530 893 520T894 499T894 475Q893 402 857 358T753 280L674 243Q660 233 649 214T638 170V138H878V0H476Z" />
<glyph unicode="&#xbe;" horiz-adv-x="1161" d="M276 870Q171 870 114 915T56 1049Q56 1060 56 1069T55 1089T57 1116H213Q212 1098 212 1081T212 1050Q213 1026 227 1012T271 997Q301 997 315 1010T330 1046Q330 1068 330 1090T330 1135Q330 1163 315 1177T269
1191H170L166 1306L285 1462H70V1600H477L475 1466L339 1312Q409 1302 448 1260T488 1138Q488 1124 488 1108T488 1076T488 1049Q487 963 434 917T276 870ZM90 0L974 1600H1140L254 0H90ZM1038 720V307H1118V171H1038V0H890V171H651V302L837 720H1038ZM890 307L911
463L929 582H901L860 463L806 307H890Z" />
<glyph unicode="&#xbf;" horiz-adv-x="803" d="M407 -418Q225 -418 145 -342T65 -88Q65 -21 65 21T65 92T65 147Q66 244 80 304T119 400T172 454T233 489L276 511Q316 531 324 565T336 635L343 820H507L512 634Q516 562 506 512T464 425T375 354L338 335Q313 321
301 296T285 234T281 147V-125Q281 -183 312 -211T405 -240Q464 -240 493 -212T525 -125Q530 -49 530 26T527 176H736Q737 136 738 93T739 4T738 -87Q731 -264 655 -341T407 -418ZM284 971V1200H566V971H284Z" />
<glyph unicode="&#xc0;" horiz-adv-x="816" d="M32 0L228 1600H588L784 0H563L525 399H291L254 0H32ZM312 591H505L471 943L436 1408H380L346 943L312 591ZM318 1680L158 1932H303L457 1680H318Z" />
<glyph unicode="&#xc1;" horiz-adv-x="816" d="M32 0L228 1600H588L784 0H563L525 399H291L254 0H32ZM312 591H505L471 943L436 1408H380L346 943L312 591ZM345 1680L512 1932H658L484 1680H345Z" />
<glyph unicode="&#xc2;" horiz-adv-x="816" d="M32 0L228 1600H588L784 0H563L525 399H291L254 0H32ZM312 591H505L471 943L436 1408H380L346 943L312 591ZM196 1682L343 1934H473L619 1682H474L408 1808L341 1682H196Z" />
<glyph unicode="&#xc3;" horiz-adv-x="816" d="M32 0L228 1600H588L784 0H563L525 399H291L254 0H32ZM312 591H505L471 943L436 1408H380L346 943L312 591ZM543 1862H631Q628 1770 595 1726T501 1681Q463 1681 441 1694T403 1723T371 1752T327 1765Q301 1765 291
1746T276 1691H188Q196 1789 230 1834T327 1879Q366 1879 389 1867T429 1838T460 1809T500 1796Q524 1796 533 1813T543 1862Z" />
<glyph unicode="&#xc4;" horiz-adv-x="816" d="M32 0L228 1600H588L784 0H563L525 399H291L254 0H32ZM312 591H505L471 943L436 1408H380L346 943L312 591ZM455 1710V1864H609V1710H455ZM209 1710V1864H362V1710H209Z" />
<glyph unicode="&#xc5;" horiz-adv-x="816" d="M32 0L228 1600H588L784 0H563L525 399H291L254 0H32ZM312 591H505L471 943L436 1408H380L346 943L312 591ZM408 1672Q337 1672 286 1723T234 1847Q234 1919 285 1970T408 2021Q481 2021 532 1970T583 1847Q583 1774
532 1723T408 1672ZM408 1789Q433 1789 450 1805T467 1847Q467 1871 450 1888T408 1905Q384 1905 368 1888T351 1847Q351 1822 367 1806T408 1789Z" />
<glyph unicode="&#xc6;" horiz-adv-x="1159" d="M32 0L329 1600H1114V1408H758V906H1094V714H758V192H1114V0H542V399H340L267 0H32ZM379 591H542V1408H494L435 888L379 591Z" />
<glyph unicode="&#xc7;" horiz-adv-x="839" d="M425 -17Q243 -17 166 60T85 315Q83 427 82 550T81 800T82 1050T85 1287Q87 1443 167 1529T424 1616Q600 1616 679 1540T764 1285Q765 1250 765 1202T764 1106T762 1022H546Q547 1066 547 1119T548 1225T547 1323Q546
1382 516 1410T424 1438Q363 1438 333 1410T301 1323Q297 1196 296 1065T294 800T295 535T301 277Q303 218 333 190T425 161Q490 161 522 189T555 277Q556 322 556 377T556 488T554 588H771Q773 522 773 452T772 315Q766 137 686 60T425 -17ZM225 -285V-178H286Q340
-178 362 -156T377 -81L361 14H477L492 -81Q508 -188 458 -236T286 -285H225Z" />
<glyph unicode="&#xc8;" horiz-adv-x="709" d="M93 0V1600H664V1408H309V906H644V714H309V192H664V0H93ZM274 1680L114 1932H259L413 1680H274Z" />
<glyph unicode="&#xc9;" horiz-adv-x="709" d="M93 0V1600H664V1408H309V906H644V714H309V192H664V0H93ZM301 1680L468 1932H614L440 1680H301Z" />
<glyph unicode="&#xca;" horiz-adv-x="709" d="M93 0V1600H664V1408H309V906H644V714H309V192H664V0H93ZM152 1682L299 1934H429L575 1682H430L364 1808L297 1682H152Z" />
<glyph unicode="&#xcb;" horiz-adv-x="709" d="M93 0V1600H664V1408H309V906H644V714H309V192H664V0H93ZM411 1710V1864H565V1710H411ZM165 1710V1864H318V1710H165Z" />
<glyph unicode="&#xcc;" horiz-adv-x="402" d="M93 0V1600H309V0H93ZM110 1680L-50 1932H95L249 1680H110Z" />
<glyph unicode="&#xcd;" horiz-adv-x="402" d="M93 0V1600H309V0H93ZM137 1680L304 1932H450L276 1680H137Z" />
<glyph unicode="&#xce;" horiz-adv-x="402" d="M93 0V1600H309V0H93ZM-12 1682L135 1934H265L411 1682H266L200 1808L133 1682H-12Z" />
<glyph unicode="&#xcf;" horiz-adv-x="402" d="M93 0V1600H309V0H93ZM247 1710V1864H401V1710H247ZM1 1710V1864H154V1710H1Z" />
<glyph unicode="&#xd0;" horiz-adv-x="940" d="M59 946H527V836H59V946ZM178 0V1600H509Q690 1600 771 1522T855 1262Q858 1097 859 949T859 653T855 339Q852 158 771 79T508 0H178ZM394 192H508Q574 192 606 222T639 315Q642 437 643 558T644 801T643 1043T639
1287Q638 1348 606 1378T509 1408H394V192Z" />
<glyph unicode="&#xd1;" horiz-adv-x="946" d="M93 0V1600H423L527 1092L650 192H699L659 974L643 1600H853V0H508L398 549L300 1409H248L285 606L302 0H93ZM611 1862H699Q696 1770 663 1726T569 1681Q531 1681 509 1694T471 1723T439 1752T395 1765Q369 1765
359 1746T344 1691H256Q264 1789 298 1834T395 1879Q434 1879 457 1867T497 1838T528 1809T568 1796Q592 1796 601 1813T611 1862Z" />
<glyph unicode="&#xd2;" horiz-adv-x="856" d="M428 -17Q248 -17 169 59T86 314Q83 434 82 556T81 800T82 1044T86 1287Q89 1464 168 1540T428 1617Q608 1617 686 1541T769 1287Q773 1165 774 1043T776 799T775 556T769 314Q765 136 687 60T428 -17ZM428 162Q492
162 522 189T553 276Q558 400 559 533T561 803T559 1071T553 1325Q552 1384 522 1411T428 1439Q365 1439 335 1412T302 1325Q298 1203 296 1071T293 803T296 534T302 276Q304 217 334 190T428 162ZM339 1680L179 1932H324L478 1680H339Z" />
<glyph unicode="&#xd3;" horiz-adv-x="856" d="M428 -17Q248 -17 169 59T86 314Q83 434 82 556T81 800T82 1044T86 1287Q89 1464 168 1540T428 1617Q608 1617 686 1541T769 1287Q773 1165 774 1043T776 799T775 556T769 314Q765 136 687 60T428 -17ZM428 162Q492
162 522 189T553 276Q558 400 559 533T561 803T559 1071T553 1325Q552 1384 522 1411T428 1439Q365 1439 335 1412T302 1325Q298 1203 296 1071T293 803T296 534T302 276Q304 217 334 190T428 162ZM366 1680L533 1932H679L505 1680H366Z" />
<glyph unicode="&#xd4;" horiz-adv-x="856" d="M428 -17Q248 -17 169 59T86 314Q83 434 82 556T81 800T82 1044T86 1287Q89 1464 168 1540T428 1617Q608 1617 686 1541T769 1287Q773 1165 774 1043T776 799T775 556T769 314Q765 136 687 60T428 -17ZM428 162Q492
162 522 189T553 276Q558 400 559 533T561 803T559 1071T553 1325Q552 1384 522 1411T428 1439Q365 1439 335 1412T302 1325Q298 1203 296 1071T293 803T296 534T302 276Q304 217 334 190T428 162ZM217 1682L364 1934H494L640 1682H495L429 1808L362 1682H217Z"
/>
<glyph unicode="&#xd5;" horiz-adv-x="856" d="M428 -17Q248 -17 169 59T86 314Q83 434 82 556T81 800T82 1044T86 1287Q89 1464 168 1540T428 1617Q608 1617 686 1541T769 1287Q773 1165 774 1043T776 799T775 556T769 314Q765 136 687 60T428 -17ZM428 162Q492
162 522 189T553 276Q558 400 559 533T561 803T559 1071T553 1325Q552 1384 522 1411T428 1439Q365 1439 335 1412T302 1325Q298 1203 296 1071T293 803T296 534T302 276Q304 217 334 190T428 162ZM564 1862H652Q649 1770 616 1726T522 1681Q484 1681 462 1694T424
1723T392 1752T348 1765Q322 1765 312 1746T297 1691H209Q217 1789 251 1834T348 1879Q387 1879 410 1867T450 1838T481 1809T521 1796Q545 1796 554 1813T564 1862Z" />
<glyph unicode="&#xd6;" horiz-adv-x="856" d="M428 -17Q248 -17 169 59T86 314Q83 434 82 556T81 800T82 1044T86 1287Q89 1464 168 1540T428 1617Q608 1617 686 1541T769 1287Q773 1165 774 1043T776 799T775 556T769 314Q765 136 687 60T428 -17ZM428 162Q492
162 522 189T553 276Q558 400 559 533T561 803T559 1071T553 1325Q552 1384 522 1411T428 1439Q365 1439 335 1412T302 1325Q298 1203 296 1071T293 803T296 534T302 276Q304 217 334 190T428 162ZM476 1710V1864H630V1710H476ZM230 1710V1864H383V1710H230Z" />
<glyph unicode="&#xd7;" horiz-adv-x="861" d="M209 407L93 524L315 745L93 967L209 1082L430 861L652 1082L768 967L547 745L768 524L652 407L430 629L209 407Z" />
<glyph unicode="&#xd8;" horiz-adv-x="856" d="M428 -17Q248 -17 169 59T86 314Q83 434 82 556T81 800T82 1044T86 1287Q89 1464 168 1540T428 1617Q608 1617 686 1541T769 1287Q773 1165 774 1043T776 799T775 556T769 314Q765 136 687 60T428 -17ZM428 162Q492
162 522 189T553 276Q557 371 558 467T560 660T560 858L298 463Q298 417 299 370T302 276Q304 217 334 190T428 162ZM294 705L559 1096Q558 1153 557 1210T553 1325Q552 1384 522 1411T428 1439Q365 1439 335 1412T302 1325Q299 1227 297 1125T294 917T294 705Z"
/>
<glyph unicode="&#xd9;" horiz-adv-x="839" d="M420 -17Q238 -17 160 59T79 314Q75 634 75 957T79 1600H295Q292 1387 291 1163T291 714T294 276Q294 219 326 191T420 162Q483 162 513 190T544 276Q546 489 547 713T548 1162T544 1600H760Q765 1281 765 958T760
314Q758 136 680 60T420 -17ZM329 1680L169 1932H314L468 1680H329Z" />
<glyph unicode="&#xda;" horiz-adv-x="839" d="M420 -17Q238 -17 160 59T79 314Q75 634 75 957T79 1600H295Q292 1387 291 1163T291 714T294 276Q294 219 326 191T420 162Q483 162 513 190T544 276Q546 489 547 713T548 1162T544 1600H760Q765 1281 765 958T760
314Q758 136 680 60T420 -17ZM356 1680L523 1932H669L495 1680H356Z" />
<glyph unicode="&#xdb;" horiz-adv-x="839" d="M420 -17Q238 -17 160 59T79 314Q75 634 75 957T79 1600H295Q292 1387 291 1163T291 714T294 276Q294 219 326 191T420 162Q483 162 513 190T544 276Q546 489 547 713T548 1162T544 1600H760Q765 1281 765 958T760
314Q758 136 680 60T420 -17ZM207 1682L354 1934H484L630 1682H485L419 1808L352 1682H207Z" />
<glyph unicode="&#xdc;" horiz-adv-x="839" d="M420 -17Q238 -17 160 59T79 314Q75 634 75 957T79 1600H295Q292 1387 291 1163T291 714T294 276Q294 219 326 191T420 162Q483 162 513 190T544 276Q546 489 547 713T548 1162T544 1600H760Q765 1281 765 958T760
314Q758 136 680 60T420 -17ZM466 1710V1864H620V1710H466ZM220 1710V1864H373V1710H220Z" />
<glyph unicode="&#xdd;" horiz-adv-x="791" d="M287 0V400V402L28 1600H249L330 1180L372 716H418L459 1180L541 1600H763L503 401V399V0H287ZM324 1680L491 1932H637L463 1680H324Z" />
<glyph unicode="&#xde;" horiz-adv-x="804" d="M93 0V1600H309V1334H408Q587 1334 667 1259T754 1010Q758 901 758 812T754 625Q748 452 668 377T407 301H309V0H93ZM309 493H407Q472 493 503 523T538 614Q541 679 542 748T543 887T538 1021Q535 1082 504 1112T408
1142H309V493Z" />
<glyph unicode="&#xdf;" horiz-adv-x="842" d="M93 0V1271Q93 1389 128 1461T239 1566T435 1600Q615 1600 692 1525T770 1276Q771 1212 771 1162T769 1063Q764 967 729 912T619 830V790Q700 765 738 708T780 550Q782 509 782 474T783 402T780 324Q776 209 740
138T629 33T434 0H395V192H434Q498 192 530 225T564 327Q566 383 566 433T564 540Q563 634 532 674T430 714H403V906H423Q488 906 520 947T554 1068Q555 1115 555 1149T555 1219T553 1300Q552 1361 523 1391T430 1422Q367 1422 340 1391T311 1301L309 0H93Z" />
<glyph unicode="&#xe0;" horiz-adv-x="823" d="M302 -14Q187 -14 133 46T67 243Q66 265 66 291T66 338Q72 414 97 471T177 573T322 659Q370 681 418 699T517 734V939Q517 996 495 1024T411 1052Q358 1052 335 1029T308 946Q307 927 307 893T306 824T308 765H98Q97
790 96 838T96 923Q100 1026 132 1091T233 1186T417 1217Q537 1217 605 1184T703 1078T732 890L731 0H515V119H485Q456 52 416 19T302 -14ZM387 144Q432 144 464 170T516 242V584Q481 573 446 559T375 520Q320 487 302 442T280 338Q279 319 279 299T280 259Q285
203 312 174T387 144ZM325 1280L165 1532H310L464 1280H325Z" />
<glyph unicode="&#xe1;" horiz-adv-x="823" d="M302 -14Q187 -14 133 46T67 243Q66 265 66 291T66 338Q72 414 97 471T177 573T322 659Q370 681 418 699T517 734V939Q517 996 495 1024T411 1052Q358 1052 335 1029T308 946Q307 927 307 893T306 824T308 765H98Q97
790 96 838T96 923Q100 1026 132 1091T233 1186T417 1217Q537 1217 605 1184T703 1078T732 890L731 0H515V119H485Q456 52 416 19T302 -14ZM387 144Q432 144 464 170T516 242V584Q481 573 446 559T375 520Q320 487 302 442T280 338Q279 319 279 299T280 259Q285
203 312 174T387 144ZM352 1280L519 1532H665L491 1280H352Z" />
<glyph unicode="&#xe2;" horiz-adv-x="823" d="M302 -14Q187 -14 133 46T67 243Q66 265 66 291T66 338Q72 414 97 471T177 573T322 659Q370 681 418 699T517 734V939Q517 996 495 1024T411 1052Q358 1052 335 1029T308 946Q307 927 307 893T306 824T308 765H98Q97
790 96 838T96 923Q100 1026 132 1091T233 1186T417 1217Q537 1217 605 1184T703 1078T732 890L731 0H515V119H485Q456 52 416 19T302 -14ZM387 144Q432 144 464 170T516 242V584Q481 573 446 559T375 520Q320 487 302 442T280 338Q279 319 279 299T280 259Q285
203 312 174T387 144ZM203 1282L350 1534H480L626 1282H481L415 1408L348 1282H203Z" />
<glyph unicode="&#xe3;" horiz-adv-x="823" d="M302 -14Q187 -14 133 46T67 243Q66 265 66 291T66 338Q72 414 97 471T177 573T322 659Q370 681 418 699T517 734V939Q517 996 495 1024T411 1052Q358 1052 335 1029T308 946Q307 927 307 893T306 824T308 765H98Q97
790 96 838T96 923Q100 1026 132 1091T233 1186T417 1217Q537 1217 605 1184T703 1078T732 890L731 0H515V119H485Q456 52 416 19T302 -14ZM387 144Q432 144 464 170T516 242V584Q481 573 446 559T375 520Q320 487 302 442T280 338Q279 319 279 299T280 259Q285
203 312 174T387 144ZM550 1462H638Q635 1370 602 1326T508 1281Q470 1281 448 1294T410 1323T378 1352T334 1365Q308 1365 298 1346T283 1291H195Q203 1389 237 1434T334 1479Q373 1479 396 1467T436 1438T467 1409T507 1396Q531 1396 540 1413T550 1462Z" />
<glyph unicode="&#xe4;" horiz-adv-x="823" d="M302 -14Q187 -14 133 46T67 243Q66 265 66 291T66 338Q72 414 97 471T177 573T322 659Q370 681 418 699T517 734V939Q517 996 495 1024T411 1052Q358 1052 335 1029T308 946Q307 927 307 893T306 824T308 765H98Q97
790 96 838T96 923Q100 1026 132 1091T233 1186T417 1217Q537 1217 605 1184T703 1078T732 890L731 0H515V119H485Q456 52 416 19T302 -14ZM387 144Q432 144 464 170T516 242V584Q481 573 446 559T375 520Q320 487 302 442T280 338Q279 319 279 299T280 259Q285
203 312 174T387 144ZM462 1310V1464H616V1310H462ZM216 1310V1464H369V1310H216Z" />
<glyph unicode="&#xe5;" horiz-adv-x="823" d="M302 -14Q187 -14 133 46T67 243Q66 265 66 291T66 338Q72 414 97 471T177 573T322 659Q370 681 418 699T517 734V939Q517 996 495 1024T411 1052Q358 1052 335 1029T308 946Q307 927 307 893T306 824T308 765H98Q97
790 96 838T96 923Q100 1026 132 1091T233 1186T417 1217Q537 1217 605 1184T703 1078T732 890L731 0H515V119H485Q456 52 416 19T302 -14ZM387 144Q432 144 464 170T516 242V584Q481 573 446 559T375 520Q320 487 302 442T280 338Q279 319 279 299T280 259Q285
203 312 174T387 144ZM416 1272Q345 1272 294 1323T242 1447Q242 1519 293 1570T416 1621Q489 1621 540 1570T591 1447Q591 1374 540 1323T416 1272ZM416 1389Q441 1389 458 1405T475 1447Q475 1471 458 1488T416 1505Q392 1505 376 1488T359 1447Q359 1422 375
1406T416 1389Z" />
<glyph unicode="&#xe6;" horiz-adv-x="1239" d="M302 -14Q197 -14 137 46T67 243Q66 265 66 291T66 338Q75 443 135 512T322 636Q370 659 418 678T517 714Q517 752 517 789T517 864T517 939Q517 977 508 1002T476 1039T411 1052Q358 1052 335 1029T308 946Q307
927 307 893T306 824T308 765H98Q97 781 96 809T95 867T96 923Q100 1026 132 1091T233 1186T417 1217Q490 1217 542 1205T630 1165Q669 1193 723 1205T849 1217Q1013 1217 1087 1149T1169 923Q1170 903 1170 866T1171 781T1171 679T1167 570H731Q731 493 731 416T731
261Q731 198 760 173T850 148Q906 148 930 173T958 261Q960 291 960 337T957 439H1167Q1170 412 1170 366T1169 283Q1162 123 1089 53T851 -17Q734 -17 661 15T552 119H534Q504 51 443 19T302 -14ZM387 144Q416 144 446 158T498 214T519 341Q519 391 518 447T517
561Q486 550 450 535T375 495Q325 466 305 429T280 338Q279 320 279 300T280 259Q285 203 312 174T387 144ZM731 724H959Q960 788 960 850T958 946Q956 1003 930 1027T849 1052Q789 1052 760 1028T731 946Q731 887 731 832T731 724Z" />
<glyph unicode="&#xe7;" horiz-adv-x="799" d="M519 765Q520 790 520 825T521 893T520 946Q518 1005 493 1028T409 1052Q351 1052 326 1029T298 946Q296 857 295 772T294 602T295 434T298 261Q300 198 326 173T412 148Q468 148 493 173T520 261Q521 292 521 337T519
439H730Q732 411 733 365T732 283Q725 123 651 53T412 -17Q243 -17 166 53T81 283Q79 340 78 422T77 595T78 770T81 914Q92 1077 167 1147T409 1217Q576 1217 651 1149T732 922Q733 886 733 840T730 765H519ZM206 -285V-178H267Q321 -178 343 -156T358 -81L342
14H458L473 -81Q489 -188 439 -236T267 -285H206Z" />
<glyph unicode="&#xe8;" horiz-adv-x="801" d="M413 -17Q243 -17 167 53T81 283Q79 340 78 422T77 595T78 770T81 914Q92 1077 168 1147T411 1217Q575 1217 649 1149T732 923Q733 896 733 839T734 708T730 561H294Q294 488 295 414T298 261Q300 198 326 173T412
148Q468 148 492 173T519 261Q521 291 521 337T519 439H730Q732 412 733 366T732 283Q724 123 652 53T413 -17ZM294 716H521Q522 765 522 812T521 894T519 946Q516 1003 492 1027T411 1052Q352 1052 326 1028T298 946Q297 885 296 828T294 716ZM316 1280L156 1532H301L455
1280H316Z" />
<glyph unicode="&#xe9;" horiz-adv-x="801" d="M413 -17Q243 -17 167 53T81 283Q79 340 78 422T77 595T78 770T81 914Q92 1077 168 1147T411 1217Q575 1217 649 1149T732 923Q733 896 733 839T734 708T730 561H294Q294 488 295 414T298 261Q300 198 326 173T412
148Q468 148 492 173T519 261Q521 291 521 337T519 439H730Q732 412 733 366T732 283Q724 123 652 53T413 -17ZM294 716H521Q522 765 522 812T521 894T519 946Q516 1003 492 1027T411 1052Q352 1052 326 1028T298 946Q297 885 296 828T294 716ZM343 1280L510 1532H656L482
1280H343Z" />
<glyph unicode="&#xea;" horiz-adv-x="801" d="M413 -17Q243 -17 167 53T81 283Q79 340 78 422T77 595T78 770T81 914Q92 1077 168 1147T411 1217Q575 1217 649 1149T732 923Q733 896 733 839T734 708T730 561H294Q294 488 295 414T298 261Q300 198 326 173T412
148Q468 148 492 173T519 261Q521 291 521 337T519 439H730Q732 412 733 366T732 283Q724 123 652 53T413 -17ZM294 716H521Q522 765 522 812T521 894T519 946Q516 1003 492 1027T411 1052Q352 1052 326 1028T298 946Q297 885 296 828T294 716ZM194 1282L341 1534H471L617
1282H472L406 1408L339 1282H194Z" />
<glyph unicode="&#xeb;" horiz-adv-x="801" d="M413 -17Q243 -17 167 53T81 283Q79 340 78 422T77 595T78 770T81 914Q92 1077 168 1147T411 1217Q575 1217 649 1149T732 923Q733 896 733 839T734 708T730 561H294Q294 488 295 414T298 261Q300 198 326 173T412
148Q468 148 492 173T519 261Q521 291 521 337T519 439H730Q732 412 733 366T732 283Q724 123 652 53T413 -17ZM294 716H521Q522 765 522 812T521 894T519 946Q516 1003 492 1027T411 1052Q352 1052 326 1028T298 946Q297 885 296 828T294 716ZM453 1310V1464H607V1310H453ZM207
1310V1464H360V1310H207Z" />
<glyph unicode="&#xec;" horiz-adv-x="408" d="M96 0V1200H312V0H96ZM113 1280L-47 1532H98L252 1280H113Z" />
<glyph unicode="&#xed;" horiz-adv-x="408" d="M96 0V1200H312V0H96ZM140 1280L307 1532H453L279 1280H140Z" />
<glyph unicode="&#xee;" horiz-adv-x="408" d="M96 0V1200H312V0H96ZM247 1282L394 1534H524L670 1282H525L459 1408L392 1282H247Z" />
<glyph unicode="&#xef;" horiz-adv-x="408" d="M96 0V1200H312V0H96ZM506 1310V1464H660V1310H506ZM260 1310V1464H413V1310H260Z" />
<glyph unicode="&#xf0;" horiz-adv-x="860" d="M439 -17Q259 -17 179 60T90 315Q88 375 87 451T87 614T89 789Q92 925 159 1001T332 1078Q400 1078 448 1052T518 983H539Q525 1050 500 1109T439 1221L307 1156L269 1232L382 1289Q350 1332 310 1367T223 1433L339
1616Q411 1568 470 1516T576 1401L704 1464L742 1387L627 1331Q701 1214 737 1068T779 740Q781 678 781 603T781 452T779 315Q775 196 740 123T632 17T439 -17ZM437 161Q497 161 529 190T563 277Q565 357 566 442T567 617T562 801Q560 850 523 875T427 901Q369
901 338 873T305 785Q304 703 304 614T304 439T307 277Q309 219 341 190T437 161Z" />
<glyph unicode="&#xf1;" horiz-adv-x="873" d="M96 0V1200H312V1082H352Q387 1147 430 1182T554 1217Q664 1217 722 1151T782 929V0H566V947Q565 1004 541 1030T466 1056Q420 1056 376 1029T312 952V0H96ZM575 1462H663Q660 1370 627 1326T533 1281Q495 1281 473
1294T435 1323T403 1352T359 1365Q333 1365 323 1346T308 1291H220Q228 1389 262 1434T359 1479Q398 1479 421 1467T461 1438T492 1409T532 1396Q556 1396 565 1413T575 1462Z" />
<glyph unicode="&#xf2;" horiz-adv-x="835" d="M418 -17Q298 -17 227 16T122 122T82 314Q80 371 79 445T77 598T78 752T82 887Q89 1005 122 1077T226 1183T418 1217Q540 1217 610 1184T714 1078T753 887Q755 829 756 756T757 603T756 449T753 314Q747 196 714
123T611 17T418 -17ZM418 148Q481 148 508 175T536 262Q539 350 540 434T542 601T541 767T536 939Q535 998 509 1025T418 1052Q356 1052 328 1025T298 939Q296 851 295 767T293 600T294 433T298 262Q300 202 328 175T418 148ZM328 1280L168 1532H313L467 1280H328Z"
/>
<glyph unicode="&#xf3;" horiz-adv-x="835" d="M418 -17Q298 -17 227 16T122 122T82 314Q80 371 79 445T77 598T78 752T82 887Q89 1005 122 1077T226 1183T418 1217Q540 1217 610 1184T714 1078T753 887Q755 829 756 756T757 603T756 449T753 314Q747 196 714
123T611 17T418 -17ZM418 148Q481 148 508 175T536 262Q539 350 540 434T542 601T541 767T536 939Q535 998 509 1025T418 1052Q356 1052 328 1025T298 939Q296 851 295 767T293 600T294 433T298 262Q300 202 328 175T418 148ZM354 1280L521 1532H667L493 1280H354Z"
/>
<glyph unicode="&#xf4;" horiz-adv-x="835" d="M418 -17Q298 -17 227 16T122 122T82 314Q80 371 79 445T77 598T78 752T82 887Q89 1005 122 1077T226 1183T418 1217Q540 1217 610 1184T714 1078T753 887Q755 829 756 756T757 603T756 449T753 314Q747 196 714
123T611 17T418 -17ZM418 148Q481 148 508 175T536 262Q539 350 540 434T542 601T541 767T536 939Q535 998 509 1025T418 1052Q356 1052 328 1025T298 939Q296 851 295 767T293 600T294 433T298 262Q300 202 328 175T418 148ZM205 1282L352 1534H482L628 1282H483L417
1408L350 1282H205Z" />
<glyph unicode="&#xf5;" horiz-adv-x="835" d="M418 -17Q298 -17 227 16T122 122T82 314Q80 371 79 445T77 598T78 752T82 887Q89 1005 122 1077T226 1183T418 1217Q540 1217 610 1184T714 1078T753 887Q755 829 756 756T757 603T756 449T753 314Q747 196 714
123T611 17T418 -17ZM418 148Q481 148 508 175T536 262Q539 350 540 434T542 601T541 767T536 939Q535 998 509 1025T418 1052Q356 1052 328 1025T298 939Q296 851 295 767T293 600T294 433T298 262Q300 202 328 175T418 148ZM552 1462H640Q637 1370 604 1326T510
1281Q472 1281 450 1294T412 1323T380 1352T336 1365Q310 1365 300 1346T285 1291H197Q205 1389 239 1434T336 1479Q375 1479 398 1467T438 1438T469 1409T509 1396Q533 1396 542 1413T552 1462Z" />
<glyph unicode="&#xf6;" horiz-adv-x="835" d="M418 -17Q298 -17 227 16T122 122T82 314Q80 371 79 445T77 598T78 752T82 887Q89 1005 122 1077T226 1183T418 1217Q540 1217 610 1184T714 1078T753 887Q755 829 756 756T757 603T756 449T753 314Q747 196 714
123T611 17T418 -17ZM418 148Q481 148 508 175T536 262Q539 350 540 434T542 601T541 767T536 939Q535 998 509 1025T418 1052Q356 1052 328 1025T298 939Q296 851 295 767T293 600T294 433T298 262Q300 202 328 175T418 148ZM464 1310V1464H618V1310H464ZM218
1310V1464H371V1310H218Z" />
<glyph unicode="&#xf7;" horiz-adv-x="988" d="M93 663V827H895V663H93ZM405 941V1121H585V941H405ZM405 369V549H585V369H405Z" />
<glyph unicode="&#xf8;" horiz-adv-x="835" d="M134 360L647 929L717 838L210 278L134 360ZM418 -17Q298 -17 227 16T122 122T82 314Q80 371 79 445T77 598T78 752T82 887Q89 1005 122 1077T226 1183T418 1217Q540 1217 610 1184T714 1078T753 887Q755 829 756
756T757 603T756 449T753 314Q747 196 714 123T611 17T418 -17ZM418 148Q481 148 508 175T536 262Q539 350 540 434T542 601T541 767T536 939Q535 998 509 1025T418 1052Q356 1052 328 1025T298 939Q296 851 295 767T293 600T294 433T298 262Q300 202 328 175T418
148Z" />
<glyph unicode="&#xf9;" horiz-adv-x="867" d="M321 -17Q212 -17 150 50T88 271V1200H304V253Q304 196 327 170T401 144Q448 144 492 171T555 248V1200H771V0H555V118H523Q485 48 437 16T321 -17ZM336 1280L176 1532H321L475 1280H336Z" />
<glyph unicode="&#xfa;" horiz-adv-x="867" d="M321 -17Q212 -17 150 50T88 271V1200H304V253Q304 196 327 170T401 144Q448 144 492 171T555 248V1200H771V0H555V118H523Q485 48 437 16T321 -17ZM363 1280L530 1532H676L502 1280H363Z" />
<glyph unicode="&#xfb;" horiz-adv-x="867" d="M321 -17Q212 -17 150 50T88 271V1200H304V253Q304 196 327 170T401 144Q448 144 492 171T555 248V1200H771V0H555V118H523Q485 48 437 16T321 -17ZM214 1282L361 1534H491L637 1282H492L426 1408L359 1282H214Z" />
<glyph unicode="&#xfc;" horiz-adv-x="867" d="M321 -17Q212 -17 150 50T88 271V1200H304V253Q304 196 327 170T401 144Q448 144 492 171T555 248V1200H771V0H555V118H523Q485 48 437 16T321 -17ZM473 1310V1464H627V1310H473ZM227 1310V1464H380V1310H227Z" />
<glyph unicode="&#xfd;" horiz-adv-x="769" d="M197 -414Q167 -414 128 -411T58 -402V-239Q84 -241 125 -243T196 -245Q273 -245 301 -220T338 -131L355 0H226L36 1200H256L317 636L369 162H430L467 636L520 1200H739L554 -115Q539 -221 502 -287T391 -383T197
-414ZM329 1280L496 1532H642L468 1280H329Z" />
<glyph unicode="&#xfe;" horiz-adv-x="873" d="M93 -400V1600H309V1082H343Q378 1148 420 1182T544 1217Q654 1217 712 1151T776 929Q778 872 779 787T781 607T780 424T776 271Q770 117 707 50T533 -17Q470 -17 426 14T343 118H309V-400H93ZM449 144Q500 144 529
170T560 253Q564 338 565 427T567 606T565 783T560 947Q558 1004 536 1030T463 1056Q415 1056 372 1030T309 952V248Q330 192 363 168T449 144Z" />
<glyph unicode="&#xff;" horiz-adv-x="769" d="M197 -414Q167 -414 128 -411T58 -402V-239Q84 -241 125 -243T196 -245Q273 -245 301 -220T338 -131L355 0H226L36 1200H256L317 636L369 162H430L467 636L520 1200H739L554 -115Q539 -221 502 -287T391 -383T197
-414ZM439 1310V1464H593V1310H439ZM193 1310V1464H346V1310H193Z" />
<glyph unicode="&#x2013;" horiz-adv-x="950" d="M60 642V834H890V642H60Z" />
<glyph unicode="&#x2014;" horiz-adv-x="1588" d="M60 642V834H1528V642H60Z" />
<glyph unicode="&#x2018;" horiz-adv-x="456" d="M86 1124V1335L216 1600H335L235 1356H370V1124H86Z" />
<glyph unicode="&#x2019;" horiz-adv-x="456" d="M121 1124L221 1368H86V1600H370V1389L240 1124H121Z" />
<glyph unicode="&#x201a;" horiz-adv-x="444" d="M121 -244L221 0H86V232H370V22L240 -244H121Z" />
<glyph unicode="&#x201c;" horiz-adv-x="786" d="M430 1124V1335L560 1600H679L578 1356H713V1124H430ZM73 1124V1335L203 1600H322L222 1356H356V1124H73Z" />
<glyph unicode="&#x201d;" horiz-adv-x="786" d="M107 1124L207 1368H73V1600H356V1389L226 1124H107ZM464 1124L564 1368H430V1600H713V1389L583 1124H464Z" />
<glyph unicode="&#x201e;" horiz-adv-x="868" d="M121 -244L221 0H86V232H370V22L240 -244H121ZM533 -244L633 0H498V232H782V22L652 -244H533Z" />
<glyph unicode="&#x2022;" horiz-adv-x="508" d="M86 643V978H421V643H86Z" />
<glyph unicode="&#x2039;" horiz-adv-x="432" d="M346 843L60 522V729L346 1049V843ZM346 202L60 522V729L346 409V202Z" />
<glyph unicode="&#x203a;" horiz-adv-x="432" d="M86 843V1049L372 729V522L86 843ZM86 202V409L372 729V522L86 202Z" />
</font>
</defs>
</svg>
